<?xml version="1.0" encoding="UTF-8" standalone="no"?>
<svg
   xmlns:dc="http://purl.org/dc/elements/1.1/"
   xmlns:cc="http://creativecommons.org/ns#"
   xmlns:rdf="http://www.w3.org/1999/02/22-rdf-syntax-ns#"
   xmlns:svg="http://www.w3.org/2000/svg"
   xmlns="http://www.w3.org/2000/svg"
   viewBox="0 0 236.024 253.39732"
   height="253.39732"
   width="236.024"
   xml:space="preserve"
   id="svg2"
   version="1.1"><metadata
     id="metadata8"><rdf:RDF><cc:Work
         rdf:about=""><dc:format>image/svg+xml</dc:format><dc:type
           rdf:resource="http://purl.org/dc/dcmitype/StillImage" /></cc:Work></rdf:RDF></metadata><defs
     id="defs6"><clipPath
       id="clipPath18"
       clipPathUnits="userSpaceOnUse"><path
         id="path16"
         d="M 0,190.048 H 177.018 V 0 H 0 Z" /></clipPath></defs><g
     transform="matrix(1.3333333,0,0,-1.3333333,0,253.39733)"
     id="g10"><g
       id="g12"><g
         clip-path="url(#clipPath18)"
         id="g14"><g
           transform="translate(29.5343,47.9379)"
           id="g20"><path
             id="path22"
             style="fill:#f47216;fill-opacity:1;fill-rule:nonzero;stroke:none"
             d="M 0,0 H 14.756 L 7.228,20.102 Z m -5.922,-15.133 h -6.225 l 15.66,41.684 c 0,0 3.865,5.596 8.031,0 l 15.058,-41.684 h -6.827 l -3.011,9.16 H -2.71 Z" /></g><g
           transform="translate(51.9694,76.9984)"
           id="g24"><path
             id="path26"
             style="fill:#f47216;fill-opacity:1;fill-rule:nonzero;stroke:none"
             d="m 0,0 v -6.399 h 9.486 v -37.794 h 6.475 v 37.794 h 9.336 V 0 Z" /></g><g
           transform="translate(88.3336,32.805)"
           id="g28"><path
             id="path30"
             style="fill:#f47216;fill-opacity:1;fill-rule:nonzero;stroke:none"
             d="m 0,0 h -6.249 v 44.193 h 24.995 c 0,0 6.776,-0.225 6.776,-7.001 V 25.447 c 0,0 -0.075,-6.324 -5.872,-6.324 H 9.938 c 0,0 -1.355,-0.678 0.075,-1.656 L 25.672,0 H 17.466 L 1.581,18.596 c 0,0 -2.786,3.689 1.882,6.023 h 13.401 c 0,0 2.786,-0.377 2.786,2.108 v 8.131 c 0,0 -0.226,2.71 -2.937,2.71 L 0,37.568 Z" /></g><path
           id="path32"
           style="fill:#f47216;fill-opacity:1;fill-rule:nonzero;stroke:none"
           d="m 120.179,32.805 h 6.55 v 44.193 h -6.55 z" /><g
           transform="translate(87.3546,118.9584)"
           id="g34"><path
             id="path36"
             style="fill:#f47216;fill-opacity:1;fill-rule:nonzero;stroke:none"
             d="m 0,0 h 13.752 c 0,0 1.406,-20.879 22.486,-20.879 21.08,0 22.486,20.177 22.486,20.177 h 13.552 c 0,0 -1.807,-33.327 -35.736,-33.327 C 2.61,-34.029 0,0 0,0" /></g><g
           transform="translate(101.0065,123.1752)"
           id="g38"><path
             id="path40"
             style="fill:#656263;fill-opacity:1;fill-rule:nonzero;stroke:none"
             d="m 0,0 h -13.752 c 0,0 0.803,31.018 33.729,33.929 V 20.879 C 19.977,20.879 0,18.57 0,0" /></g><g
           transform="translate(126.069,143.4935)"
           id="g42"><path
             id="path44"
             style="fill:#00adef;fill-opacity:1;fill-rule:nonzero;stroke:none"
             d="m 0,0 0.279,13.749 c 0,0 31.041,-0.789 33.283,-33.767 H 20.311 c 0,0 -1.744,19.64 -20.311,20.018" /></g><g
           transform="translate(112.5758,135.4212)"
           id="g46"><path
             id="path48"
             style="fill:#f47216;fill-opacity:1;fill-rule:nonzero;stroke:none"
             d="m 0,0 6.098,-5.947 c 0,0 4.292,2.634 8.96,0.225 l 6.7,5.948 C 21.758,0.226 10.691,8.282 0,0" /></g><g
           transform="translate(115.4366,125.4086)"
           id="g50"><path
             id="path52"
             style="fill:#00adef;fill-opacity:1;fill-rule:nonzero;stroke:none"
             d="m 0,0 c 0,0 -3.839,-4.065 0,-8.658 l -6.399,-6.55 c 0,0 -8.583,10.916 -0.226,21.908 z" /></g><g
           transform="translate(131.2472,125.4837)"
           id="g54"><path
             id="path56"
             style="fill:#656263;fill-opacity:1;fill-rule:nonzero;stroke:none"
             d="m 0,0 6.7,6.55 c 0,0 8.658,-11.971 -1.656,-23.414 0,0 -9.787,-10.992 -23.565,-2.184 l 6.324,6.55 c 0,0 7.077,-3.237 11.444,1.656 0,0 4.216,4.217 0.753,10.842" /></g></g></g></g></svg>