<?xml version="1.0" encoding="utf-8"?>
<!-- Generator: Adobe Illustrator 16.0.0, SVG Export Plug-In . SVG Version: 6.00 Build 0)  -->
<!DOCTYPE svg PUBLIC "-//W3C//DTD SVG 1.1//EN" "http://www.w3.org/Graphics/SVG/1.1/DTD/svg11.dtd">
<svg version="1.1" id="Layer_1" xmlns="http://www.w3.org/2000/svg" xmlns:xlink="http://www.w3.org/1999/xlink" x="0px" y="0px"
	 width="135px" height="152.911px" viewBox="0 0 135 152.911" enable-background="new 0 0 135 152.911" xml:space="preserve">
<rect x="3.057" y="2.627" fill="#D5D9E3" width="128.868" height="146.618"/>
<path fill="#000080" d="M7.78,126.034c3.824,0,39.808,0,44.081,0l12.37-12.402H7.78V126.034z"/>
<path fill="#000080" d="M127.202,75.271V47.188c-2.249,2.879-6.747,7.708-9.446,9.967l-5.847,4.208
	c-6.298,4.607-11.921,7.397-19.566,9.966c-2.698,0.842-4.948,1.506-7.646,2.126c-1.35,0.311-4.273,1.019-8.321,1.816
	C80.422,75.271,119.779,75.271,127.202,75.271"/>
<path fill="#000080" d="M7.78,75.271c5.398,0,48.354,0,50.603,0c-1.35-0.266-6.297-1.329-7.871-1.728
	c-3.599-0.93-11.245-3.056-14.844-4.739c-2.249-1.107-3.823-1.949-6.522-3.322C17.001,59.192,10.029,49.181,7.78,47.188V75.271z"/>
<path fill="#000080" d="M10.254,42.936c2.024,3.942,9.896,9.967,13.269,13.023l9.896,6.422c6.522,3.456,17.092,8.549,39.132,8.239
	c3.374,0,15.743-2.968,17.317-3.544c4.948-1.905,6.071-1.993,11.47-4.695c6.973-3.499,20.241-14.13,23.165-19.445
	C122.704,41.12,91.218,8.253,90.544,7.499H44.888C43.539,7.765,11.828,40.411,10.254,42.936"/>
<path fill="#000080" d="M81.098,126.034h46.104v-12.402H69.852v24.627C74.125,133.519,78.398,129,81.098,126.034"/>
<path fill="#000080" d="M7.78,143.265l57.35-0.044v-24.762l-12.37,12.403c-1.349,0-3.823,0-10.345,0c-9.446,0-25.639,0-34.635,0
	V143.265z"/>
<path fill="#000080" d="M127.202,130.862c-10.57,0-23.39-0.044-34.185-0.044c-4.949,0.044-8.098,0.044-10.121,0.044l-11.244,12.403
	l55.55-0.089V130.862z"/>
<path fill="#000080" d="M7.78,38.816c1.349-1.285,23.165-22.989,26.763-26.71c1.349-1.55,3.373-3.278,4.723-4.607H7.78V38.816z"/>
<path fill="#000080" d="M127.202,38.816c-1.349-1.285-23.165-22.989-26.763-26.71c-1.351-1.55-3.375-3.278-4.724-4.607h31.486
	V38.816z"/>
<path fill="#000080" d="M105.846,93.114h15.848c-0.209-2.395-0.822-4.188-1.818-5.384c-1.525-1.854-3.52-2.788-5.959-2.788
	c-2.212,0-4.066,0.741-5.575,2.221C106.842,88.644,106.01,90.627,105.846,93.114 M121.641,100.847l4.99,0.657
	c-0.777,2.897-2.23,5.156-4.352,6.754c-2.12,1.601-4.825,2.404-8.125,2.404c-4.148,0-7.439-1.279-9.87-3.838
	c-2.433-2.551-3.647-6.143-3.647-10.759c0-4.771,1.225-8.481,3.684-11.114c2.459-2.643,5.648-3.959,9.57-3.959
	c3.793,0,6.892,1.289,9.295,3.875c2.404,2.586,3.61,6.225,3.61,10.914c0,0.283-0.009,0.713-0.028,1.279h-21.195
	c0.183,3.117,1.06,5.512,2.65,7.166c1.582,1.654,3.564,2.486,5.932,2.486c1.765,0,3.272-0.467,4.516-1.398
	C119.921,104.383,120.908,102.894,121.641,100.847z M83.909,110.06V81.597h4.332v4.36c1.106-2.021,2.13-3.354,3.071-3.994
	c0.94-0.649,1.974-0.969,3.099-0.969c1.627,0,3.28,0.512,4.963,1.525l-1.718,4.451c-1.17-0.658-2.34-0.987-3.51-0.987
	c-1.051,0-1.994,0.32-2.824,0.951c-0.832,0.631-1.426,1.508-1.782,2.633c-0.54,1.709-0.806,3.583-0.806,5.621v14.871H83.909z
	 M71.67,95.801c-1.754,0.713-4.387,1.316-7.897,1.81c-1.992,0.284-3.4,0.604-4.223,0.96c-0.823,0.355-1.454,0.877-1.901,1.555
	c-0.448,0.686-0.676,1.443-0.676,2.285c0,1.271,0.484,2.34,1.462,3.189s2.404,1.279,4.278,1.279c1.855,0,3.51-0.402,4.963-1.215
	c1.444-0.805,2.514-1.912,3.19-3.31c0.521-1.088,0.776-2.688,0.776-4.799L71.67,95.801z M72.055,106.495
	c-1.791,1.526-3.52,2.596-5.174,3.228c-1.655,0.631-3.428,0.94-5.329,0.94c-3.126,0-5.53-0.758-7.212-2.285
	c-1.682-1.517-2.523-3.463-2.523-5.832c0-1.389,0.32-2.66,0.951-3.811c0.64-1.152,1.472-2.064,2.496-2.76
	c1.033-0.695,2.184-1.225,3.473-1.582c0.951-0.247,2.386-0.484,4.296-0.723c3.894-0.457,6.773-1.014,8.609-1.653
	c0.02-0.658,0.027-1.079,0.027-1.252c0-1.956-0.457-3.336-1.371-4.142c-1.234-1.086-3.071-1.625-5.502-1.625
	c-2.276,0-3.958,0.401-5.037,1.196c-1.087,0.796-1.883,2.203-2.404,4.231l-4.716-0.657c0.43-2.021,1.133-3.655,2.121-4.899
	c0.987-1.242,2.413-2.193,4.277-2.869c1.856-0.668,4.022-1.006,6.471-1.006c2.432,0,4.415,0.283,5.941,0.859
	c1.518,0.576,2.642,1.289,3.354,2.156c0.713,0.869,1.215,1.966,1.508,3.291c0.154,0.824,0.237,2.304,0.237,4.434v6.398
	c0,4.47,0.101,7.293,0.302,8.49c0.191,1.197,0.594,2.34,1.178,3.438h-5.045C72.502,109.045,72.191,107.857,72.055,106.495z
	 M7.78,110.06V81.597h4.333v4.022c0.887-1.391,2.075-2.515,3.556-3.354c1.48-0.851,3.163-1.271,5.055-1.271
	c2.102,0,3.83,0.438,5.173,1.307c1.344,0.877,2.295,2.093,2.843,3.664c2.267-3.317,5.201-4.971,8.82-4.971
	c2.834,0,5.018,0.776,6.536,2.34c1.526,1.563,2.294,3.967,2.294,7.211v19.515h-4.826V92.145c0-1.919-0.165-3.309-0.476-4.159
	s-0.877-1.526-1.709-2.048c-0.822-0.521-1.792-0.775-2.897-0.775c-2.011,0-3.675,0.666-5,1.991c-1.325,1.335-1.983,3.464-1.983,6.39
	v16.517h-4.826V91.586c0-2.139-0.393-3.748-1.179-4.816c-0.786-1.068-2.075-1.607-3.857-1.607c-1.353,0-2.605,0.355-3.756,1.068
	c-1.152,0.713-1.984,1.755-2.504,3.135c-0.512,1.371-0.768,3.354-0.768,5.941v14.752L7.78,110.06L7.78,110.06z"/>
</svg>
